<svg width="1200" height="1200" viewBox="0 0 1200 1200" fill="none" xmlns="http://www.w3.org/2000/svg">
<g clip-path="url(#clip0_919_3496)">
<path d="M1207.38 -7.34H-6.61011V1206.65H1207.38V-7.34Z" fill="#38148E"/>
<path d="M608.57 386.53L421.33 839.65H355.1L441.89 629.52C399.9 672.43 363.67 688.52 331.47 678.67C260.29 656.94 264.57 521.06 267.57 479.93L328.59 484.4C327.86 494.5 327.55 504.6 327.55 514.39C327.55 569.6 338.14 616.73 349.34 620.16C349.77 620.28 398.49 631.3 553.65 359.66L608.57 386.53Z" fill="#00E4A3"/>
<path d="M802.78 752.56L748.53 605.51H707.26L653.01 752.56H690.71C687.81 746.6 694.11 736.5 699.93 725.54H755.44C761.44 736.51 768.1 747.93 764.66 752.56H802.78ZM709.15 698.3L721.78 672.46V646.52H732.93V672.46L746.22 698.3H709.15Z" fill="white"/>
<path d="M599.39 725.12H647.15V752.56H563.57V604.47H599.39V725.12Z" fill="white"/>
<path d="M926.68 689.31C931.92 695.88 934.53 703.49 934.53 712.14C934.53 724.85 930.31 734.76 921.86 741.88C913.41 749 901.3 752.56 885.52 752.56H816.6V604.47H883.84C898.92 604.47 910.58 607.75 918.82 614.31C927.06 620.88 931.18 630.23 931.18 642.38C931.18 651.32 928.8 658.75 924.06 664.69C919.31 670.63 913.1 674.5 905.42 676.31C914.35 678.41 921.44 682.74 926.68 689.31ZM852.42 665.01H875.88C888.31 665.01 894.52 659.7 894.52 649.09C894.52 638.48 888.16 633.17 875.46 633.17H852.42V665.01ZM897.88 707.11C897.88 701.81 896.13 697.65 892.64 694.65C889.15 691.65 884.19 690.14 877.77 690.14H852.43V723.45H877.98C891.24 723.45 897.88 718 897.88 707.11Z" fill="white"/>
</g>
<defs>
<clipPath id="clip0_919_3496">
<rect width="1200" height="1200" fill="white"/>
</clipPath>
</defs>
</svg>
