<svg width="33" height="33" viewBox="0 0 33 33" fill="none" xmlns="http://www.w3.org/2000/svg">
<path d="M28.6675 7.66599H20.6675C19.6066 7.66599 18.5892 8.08737 17.8391 8.83762C17.0889 9.58762 16.6675 10.6052 16.6675 11.666C16.6675 10.6052 16.246 9.58762 15.4959 8.83762C14.7458 8.08737 13.7283 7.66599 12.6675 7.66599H4.66748C4.40228 7.66599 4.14789 7.77145 3.96039 7.95895C3.77283 8.14645 3.66748 8.40085 3.66748 8.66599V24.666C3.66748 24.9311 3.77283 25.1855 3.96039 25.373C4.14789 25.5605 4.40228 25.666 4.66748 25.666H12.6675C13.7283 25.666 14.7458 26.0874 15.4959 26.8376C16.246 27.5876 16.6675 28.6052 16.6675 29.666C16.6675 28.6052 17.0889 27.5876 17.8391 26.8376C18.5892 26.0874 19.6066 25.666 20.6675 25.666H28.6675C28.9327 25.666 29.1871 25.5605 29.3746 25.373C29.5621 25.1855 29.6675 24.9311 29.6675 24.666V8.66599C29.6675 8.40085 29.5621 8.14645 29.3746 7.95895C29.1871 7.77145 28.9327 7.66599 28.6675 7.66599Z" fill="#D7C7FF"/>
<path d="M17.1319 26.1305C15.6675 27.5949 15.6675 29.666 15.6675 29.666C15.6675 30.2183 16.1152 30.666 16.6675 30.666C17.2198 30.666 17.6675 30.2183 17.6675 29.666C17.6675 28.4233 18.5462 27.5447 18.5462 27.5447C19.4248 26.666 20.6675 26.666 20.6675 26.666H28.6675C29.4959 26.666 30.0817 26.0802 30.0817 26.0802C30.6675 25.4944 30.6675 24.666 30.6675 24.666V8.66599C30.6675 7.83756 30.0817 7.25177 30.0817 7.25177C29.4959 6.66599 28.6675 6.66599 28.6675 6.66599H20.6675C18.5964 6.66599 17.1319 8.13045 17.1319 8.13045C15.6675 9.59492 15.6675 11.666 15.6675 11.666C15.6675 12.2183 16.1152 12.666 16.6675 12.666C16.9327 12.666 17.1871 12.5606 17.3746 12.3731C17.5621 12.1856 17.6675 11.9312 17.6675 11.666C17.6675 10.4233 18.5462 9.54466 18.5462 9.54466C19.4248 8.66599 20.6675 8.66599 20.6675 8.66599H28.6675V24.666H20.6675C18.5964 24.666 17.1319 26.1305 17.1319 26.1305Z" fill="#1C1C1C"/>
<path fill-rule="evenodd" clip-rule="evenodd" d="M2.66846 8.66599C2.66846 8.66599 2.66846 7.83756 3.25424 7.25177C3.25424 7.25177 3.84003 6.66599 4.66846 6.66599H12.6685C12.6685 6.66599 14.7395 6.66599 16.204 8.13045C16.204 8.13045 17.6685 9.59492 17.6685 11.666V29.666C17.6685 30.2183 17.2207 30.666 16.6685 30.666C16.1162 30.666 15.6685 30.2183 15.6685 29.666C15.6685 29.666 15.6685 28.4233 14.7898 27.5447C14.7898 27.5447 13.9111 26.666 12.6685 26.666H4.66846C4.66846 26.666 3.84003 26.666 3.25424 26.0802C3.25424 26.0802 2.66846 25.4944 2.66846 24.666V8.66599ZM15.6685 11.666V25.6594C15.6685 25.6594 14.3742 24.666 12.6685 24.666H4.66846V8.66599H12.6685C12.6685 8.66599 13.9111 8.66599 14.7898 9.54466C14.7898 9.54466 15.6685 10.4233 15.6685 11.666Z" fill="#1C1C1C"/>
</svg>
