<svg width="33" height="33" viewBox="0 0 33 33" fill="none" xmlns="http://www.w3.org/2000/svg">
<circle cx="16.6678" cy="16.666" r="5.33333" fill="#D7C7FF"/>
<path d="M27.6687 17.4254V15.8954L29.5887 14.2154C29.9426 13.9035 30.1749 13.4764 30.2444 13.0098C30.314 12.5432 30.2163 12.067 29.9687 11.6654L27.6087 7.66542C27.4333 7.36168 27.1812 7.1094 26.8775 6.93388C26.5739 6.75836 26.2294 6.66578 25.8787 6.66542C25.6614 6.66375 25.4452 6.69753 25.2387 6.76542L22.8087 7.58542C22.3892 7.30662 21.9515 7.05607 21.4987 6.83542L20.9887 4.31542C20.8973 3.85502 20.6468 3.44146 20.2812 3.14712C19.9155 2.85278 19.458 2.69642 18.9887 2.70542H14.3087C13.8394 2.69642 13.3819 2.85278 13.0163 3.14712C12.6506 3.44146 12.4002 3.85502 12.3087 4.31542L11.7987 6.83542C11.3426 7.05602 10.9017 7.30656 10.4787 7.58542L8.09871 6.72542C7.89001 6.67104 7.67388 6.65078 7.45871 6.66542C7.10798 6.66578 6.76352 6.75836 6.45987 6.93388C6.15623 7.1094 5.90407 7.36168 5.72871 7.66542L3.36871 11.6654C3.1353 12.0664 3.04856 12.5361 3.12336 12.994C3.19816 13.4519 3.42983 13.8695 3.77871 14.1754L5.66871 15.9054V17.4354L3.77871 19.1154C3.41998 19.4234 3.18196 19.8485 3.10691 20.3154C3.03185 20.7822 3.12461 21.2605 3.36871 21.6654L5.72871 25.6654C5.90407 25.9692 6.15623 26.2214 6.45987 26.397C6.76352 26.5725 7.10798 26.6651 7.45871 26.6654C7.67606 26.6671 7.89223 26.6333 8.09871 26.5654L10.5287 25.7454C10.9482 26.0242 11.3859 26.2748 11.8387 26.4954L12.3487 29.0154C12.4402 29.4758 12.6906 29.8894 13.0563 30.1837C13.4219 30.4781 13.8794 30.6344 14.3487 30.6254H19.0687C19.538 30.6344 19.9955 30.4781 20.3612 30.1837C20.7268 29.8894 20.9773 29.4758 21.0687 29.0154L21.5787 26.4954C22.0348 26.2748 22.4757 26.0243 22.8987 25.7454L25.3187 26.5654C25.5252 26.6333 25.7414 26.6671 25.9587 26.6654C26.3094 26.6651 26.6539 26.5725 26.9575 26.397C27.2612 26.2214 27.5133 25.9692 27.6887 25.6654L29.9687 21.6654C30.2021 21.2644 30.2889 20.7948 30.2141 20.3369C30.1393 19.8789 29.9076 19.4613 29.5587 19.1554L27.6687 17.4254ZM25.8787 24.6654L22.4487 23.5054C21.6458 24.1855 20.7281 24.7172 19.7387 25.0754L19.0287 28.6654H14.3087L13.5987 25.1154C12.6171 24.747 11.7044 24.2163 10.8987 23.5454L7.45871 24.6654L5.09871 20.6654L7.81871 18.2654C7.63381 17.2303 7.63381 16.1706 7.81871 15.1354L5.09871 12.6654L7.45871 8.66542L10.8887 9.82542C11.6916 9.14531 12.6093 8.61367 13.5987 8.25542L14.3087 4.66542H19.0287L19.7387 8.21542C20.7203 8.58384 21.633 9.11456 22.4387 9.78542L25.8787 8.66542L28.2387 12.6654L25.5187 15.0654C25.7036 16.1006 25.7036 17.1603 25.5187 18.1954L28.2387 20.6654L25.8787 24.6654Z" fill="black"/>
<path d="M16.6675 22.666C15.4808 22.666 14.3208 22.3141 13.3341 21.6548C12.3474 20.9955 11.5783 20.0584 11.1242 18.9621C10.6701 17.8657 10.5513 16.6593 10.7828 15.4954C11.0143 14.3316 11.5857 13.2625 12.4248 12.4233C13.264 11.5842 14.3331 11.0128 15.4969 10.7813C16.6608 10.5498 17.8672 10.6686 18.9636 11.1227C20.0599 11.5768 20.997 12.3459 21.6563 13.3326C22.3156 14.3193 22.6675 15.4793 22.6675 16.666C22.6755 17.4561 22.5258 18.24 22.2271 18.9715C21.9284 19.7031 21.4868 20.3678 20.928 20.9265C20.3692 21.4853 19.7046 21.9269 18.973 22.2256C18.2415 22.5243 17.4576 22.674 16.6675 22.666ZM16.6675 12.666C16.1388 12.6537 15.6132 12.7487 15.1223 12.9454C14.6314 13.142 14.1856 13.4362 13.8116 13.8101C13.4377 14.1841 13.1435 14.6299 12.9469 15.1208C12.7502 15.6117 12.6552 16.1373 12.6675 16.666C12.6552 17.1946 12.7502 17.7203 12.9469 18.2112C13.1435 18.702 13.4377 19.1479 13.8116 19.5218C14.1856 19.8958 14.6314 20.1899 15.1223 20.3866C15.6132 20.5833 16.1388 20.6783 16.6675 20.666C17.1961 20.6783 17.7218 20.5833 18.2127 20.3866C18.7035 20.1899 19.1494 19.8958 19.5233 19.5218C19.8972 19.1479 20.1914 18.702 20.3881 18.2112C20.5848 17.7203 20.6798 17.1946 20.6675 16.666C20.6798 16.1373 20.5848 15.6117 20.3881 15.1208C20.1914 14.6299 19.8972 14.1841 19.5233 13.8101C19.1494 13.4362 18.7035 13.142 18.2127 12.9454C17.7218 12.7487 17.1961 12.6537 16.6675 12.666Z" fill="black"/>
</svg>
