<svg width="33" height="33" viewBox="0 0 33 33" fill="none" xmlns="http://www.w3.org/2000/svg">
<path d="M4.86756 18.866C4.7312 18.1408 4.66419 17.4041 4.6676 16.666C4.66602 14.1842 5.43469 11.7632 6.86768 9.73692C8.30066 7.71055 10.3271 6.17905 12.6676 5.35349V14.3535L4.86756 18.866Z" fill="#D7C7FF"/>
<path d="M17.6675 16.666V4.66599C17.6675 4.1137 17.2198 3.66599 16.6675 3.66599C16.1152 3.66599 15.6675 4.1137 15.6675 4.66599V16.666C15.6675 17.2183 16.1152 17.666 16.6675 17.666C17.2198 17.666 17.6675 17.2183 17.6675 16.666Z" fill="#1C1C1C"/>
<path d="M5.78036 21.7996L5.77961 21.8001C5.54995 21.9327 5.3824 22.1512 5.31381 22.4074C5.29122 22.4917 5.27979 22.5787 5.27979 22.666C5.27979 22.6766 5.27995 22.6871 5.28029 22.6977C5.28552 22.8625 5.3314 23.0234 5.41386 23.1662C5.59252 23.4755 5.92259 23.666 6.27979 23.666C6.29532 23.666 6.31085 23.6656 6.32637 23.6649C6.48602 23.6575 6.64156 23.6119 6.77996 23.5319L6.78071 23.5315L27.555 11.5319C27.8643 11.3533 28.0548 11.0232 28.0548 10.666C28.0548 10.6505 28.0544 10.6349 28.0537 10.6194C28.0463 10.4598 28.0007 10.3042 27.9207 10.1658C27.7881 9.93615 27.5696 9.7686 27.3134 9.70001C27.2291 9.67742 27.1421 9.66599 27.0548 9.66599C27.0442 9.66599 27.0336 9.66615 27.0231 9.66649C26.8583 9.67172 26.6974 9.7176 26.5546 9.80006L5.78036 21.7996Z" fill="#1C1C1C"/>
<path fill-rule="evenodd" clip-rule="evenodd" d="M13.1688 15.2191L5.36882 19.7316C5.13926 19.8644 4.86633 19.9006 4.61009 19.8321C4.35385 19.7637 4.13529 19.5963 4.00248 19.3667C3.94583 19.2688 3.9062 19.162 3.88529 19.0508C3.88529 19.0508 3.66253 17.8665 3.66807 16.6614C3.66807 16.6614 3.66543 12.5338 6.05169 9.15948C6.05169 9.15948 8.43794 5.78517 12.3354 4.41043C12.5855 4.32221 12.8605 4.33696 13.0997 4.45143C13.3389 4.56591 13.5229 4.77073 13.6111 5.02085C13.6488 5.1277 13.6681 5.24018 13.6681 5.35349V14.3535C13.6681 14.7104 13.4778 15.0403 13.1688 15.2191ZM5.68067 17.2406L11.6681 13.7767V6.8617C11.6681 6.8617 9.27808 8.06102 7.68462 10.3143C7.68462 10.3143 5.66583 13.169 5.66805 16.6706C5.66805 16.6706 5.66674 16.9563 5.68067 17.2406Z" fill="#1C1C1C"/>
<path d="M11.2277 26.2268C8.67064 24.7719 7.18123 22.2347 7.18123 22.2347C7.04697 22.006 6.82734 21.84 6.57067 21.7732C6.48844 21.7518 6.40382 21.741 6.31885 21.741C6.30593 21.741 6.29301 21.7412 6.2801 21.7417C6.11537 21.7481 5.95477 21.7951 5.8126 21.8786C5.50672 22.0582 5.31885 22.3863 5.31885 22.741L5.31885 22.7439C5.31936 22.9209 5.36685 23.0946 5.45646 23.2472C7.21666 26.2457 10.2387 27.9651 10.2387 27.9651C13.2607 29.6846 16.7376 29.6658 16.7376 29.6658C20.2145 29.647 23.2178 27.8951 23.2178 27.8951C26.2211 26.1431 27.9489 23.1259 27.9489 23.1259C29.6766 20.1086 29.6674 16.6316 29.6674 16.6316C29.6583 13.1547 27.9146 10.1466 27.9146 10.1466C26.1709 7.13848 23.1584 5.40243 23.1584 5.40243C20.1459 3.66638 16.669 3.66599 16.669 3.66599C16.6078 3.66599 16.547 3.67157 16.487 3.68266C16.0129 3.77033 15.6689 4.18377 15.6688 4.66587C15.6688 4.68193 15.6692 4.69795 15.67 4.71391C15.6819 4.96222 15.7859 5.1972 15.9617 5.37301C16.1492 5.56057 16.4035 5.66595 16.6687 5.66598H16.6692C19.611 5.66643 22.1598 7.13528 22.1598 7.13528C24.7089 8.60425 26.1843 11.1496 26.1843 11.1496C27.6597 13.6949 27.6674 16.6369 27.6674 16.6369C27.6752 19.5789 26.2133 22.132 26.2133 22.132C24.7514 24.6851 22.2101 26.1675 22.2101 26.1675C19.6688 27.65 16.7268 27.6658 16.7268 27.6658C13.7849 27.6817 11.2277 26.2268 11.2277 26.2268Z" fill="#1C1C1C"/>
</svg>
