<svg width="33" height="33" viewBox="0 0 33 33" fill="none" xmlns="http://www.w3.org/2000/svg">
<path d="M25.8701 12.3726C25.8701 13.3463 25.5051 14.6289 24.8439 16.1172C24.1908 17.5871 23.2855 19.1779 22.2873 20.7435C20.2915 23.8736 17.9693 26.8334 16.682 28.413C16.519 28.6131 16.2316 28.6131 16.0686 28.413C14.7813 26.8334 12.4591 23.8736 10.4633 20.7435C9.46508 19.1779 8.55974 17.5871 7.90669 16.1172C7.24545 14.6289 6.88049 13.3463 6.88049 12.3726C6.88049 7.12885 11.1314 2.87792 16.3753 2.87792C21.6191 2.87792 25.8701 7.12885 25.8701 12.3726Z" fill="#D7C7FF" stroke="black" stroke-width="1.76"/>
<path d="M19.8204 12.3713C19.8204 14.2747 18.2775 15.8176 16.3741 15.8176C14.4707 15.8176 12.9277 14.2747 12.9277 12.3713C12.9277 10.468 14.4707 8.92504 16.3741 8.92504C18.2775 8.92504 19.8204 10.468 19.8204 12.3713Z" fill="white" stroke="black" stroke-width="2"/>
</svg>
