<svg width="491" height="187" viewBox="0 0 491 187" fill="none" xmlns="http://www.w3.org/2000/svg">
<path d="M114.67 32.55L60.9998 162.5H41.9998L66.8998 102.24C54.8498 114.54 44.4598 119.16 35.2298 116.34C14.7798 110.1 15.9998 71.13 16.8698 59.34L34.3698 60.62C34.1598 63.51 34.0698 66.41 34.0698 69.22C34.0698 85.05 37.0698 98.57 40.3198 99.55C40.4498 99.55 54.4198 102.75 98.9198 24.84L114.67 32.55Z" fill="#00E4A3"/>
<path d="M156.25 68.16C162.078 71.2104 166.896 75.886 170.12 81.62C173.493 87.5 175.18 94.4033 175.18 102.33C175.18 110.257 173.493 117.147 170.12 123C166.872 128.715 162.06 133.385 156.25 136.46C150.081 139.563 143.271 141.18 136.365 141.18C129.459 141.18 122.649 139.563 116.48 136.46C110.667 133.385 105.852 128.716 102.6 123C99.2334 117.167 97.5467 110.287 97.5401 102.36C97.5334 94.4333 99.2201 87.53 102.6 81.65C105.829 75.9164 110.65 71.2412 116.48 68.19C122.662 65.131 129.467 63.5397 136.365 63.5397C143.263 63.5397 150.068 65.131 156.25 68.19V68.16ZM122.69 85.86C118.963 89.64 117.097 95.13 117.09 102.33C117.083 109.53 118.95 115.02 122.69 118.8C124.484 120.598 126.614 122.024 128.96 122.997C131.306 123.971 133.82 124.472 136.36 124.472C138.9 124.472 141.414 123.971 143.76 122.997C146.106 122.024 148.236 120.598 150.03 118.8C153.77 115.02 155.637 109.53 155.63 102.33C155.623 95.13 153.747 89.64 150 85.86C148.206 84.0621 146.076 82.6358 143.73 81.6626C141.384 80.6894 138.87 80.1884 136.33 80.1884C133.79 80.1884 131.276 80.6894 128.93 81.6626C126.584 82.6358 124.454 84.0621 122.66 85.86H122.69Z" fill="white"/>
<path d="M230.26 70.49C235.866 75.2152 239.559 81.82 240.65 89.07H222.65C222.062 85.6785 220.324 82.5925 217.73 80.33C214.913 78.044 211.354 76.8731 207.73 77.04C204.45 77.04 201.9 77.8167 200.08 79.37C199.174 80.1403 198.456 81.1074 197.981 82.1976C197.507 83.2878 197.287 84.4721 197.34 85.66C197.312 86.6037 197.494 87.5418 197.872 88.4065C198.251 89.2712 198.817 90.041 199.53 90.66C201.133 92.0177 202.994 93.038 205 93.66C207.18 94.3867 210.323 95.2534 214.43 96.26C219.191 97.2395 223.871 98.5766 228.43 100.26C232.038 101.681 235.232 103.985 237.72 106.96C240.32 110.013 241.62 114.137 241.62 119.33C241.706 122.382 241.058 125.411 239.732 128.162C238.407 130.912 236.441 133.305 234 135.14C228.94 139.14 222.13 141.14 213.57 141.14C203.73 141.14 195.847 138.93 189.92 134.51C183.993 130.09 180.393 123.78 179.12 115.58H197.6C197.757 117.313 198.276 118.993 199.124 120.512C199.971 122.032 201.128 123.356 202.52 124.4C205.34 126.54 209.03 127.61 213.59 127.61C216.87 127.61 219.373 126.813 221.1 125.22C221.956 124.432 222.631 123.468 223.08 122.394C223.529 121.321 223.74 120.163 223.7 119C223.736 118.001 223.553 117.007 223.164 116.086C222.776 115.166 222.191 114.341 221.45 113.67C219.825 112.234 217.912 111.161 215.84 110.52C213.613 109.793 210.447 108.93 206.34 107.93C201.682 106.936 197.095 105.633 192.61 104.03C189.118 102.71 186.02 100.521 183.61 97.67C181.11 94.7567 179.86 90.7567 179.86 85.67C179.781 82.6027 180.418 79.5592 181.722 76.7815C183.026 74.0039 184.96 71.5688 187.37 69.67C192.39 65.57 199.317 63.52 208.15 63.52C217.33 63.5134 224.7 65.8367 230.26 70.49Z" fill="white"/>
<path d="M268.39 64.47H249.12V140.19H268.39V64.47Z" fill="white"/>
<path d="M407.38 140.35L379.46 64.6801H358.23L330.31 140.35H349.71C348.22 137.28 351.46 132.09 354.45 126.44H383C386.09 132.09 389.52 137.97 387.74 140.35H407.38ZM359.2 112.43L365.7 99.1301V85.7801H371.44V99.1301L378.28 112.43H359.2Z" fill="white"/>
<path d="M302.71 126.23H327.29V140.35H284.29V64.14H302.72L302.71 126.23Z" fill="white"/>
<path d="M471.14 107.8C473.806 111.129 475.222 115.286 475.14 119.55C475.14 126.09 472.967 131.19 468.62 134.85C464.274 138.51 458.04 140.343 449.92 140.35H414.49V64.14H449.1C456.86 64.14 462.86 65.8267 467.1 69.2C471.34 72.5733 473.46 77.39 473.46 83.65C473.613 87.7876 472.315 91.8485 469.79 95.13C467.379 98.1741 463.992 100.293 460.2 101.13C464.507 102.025 468.372 104.381 471.14 107.8ZM432.93 95.29H445C451.4 95.29 454.6 92.56 454.6 87.1C454.6 81.64 451.32 78.91 444.79 78.91H432.93V95.29ZM456.32 117C456.383 115.796 456.173 114.593 455.706 113.481C455.238 112.369 454.525 111.377 453.62 110.58C451.827 109.04 449.277 108.27 445.97 108.27H432.97V125.41H446.12C452.927 125.383 456.327 122.58 456.32 117Z" fill="white"/>
</svg>
