<svg width="42" height="42" viewBox="0 0 42 42" fill="none" xmlns="http://www.w3.org/2000/svg">
<path opacity="0.3" d="M20.8387 11.528C16.5385 11.528 13.9307 15.0069 13.9307 19.278V29.6113H27.7468V19.278C27.7468 15.0069 25.139 11.528 20.8387 11.528Z" fill="#00E4A3" fill-opacity="0.27"/>
<path d="M20.8406 38.2207C22.7403 38.2207 24.2946 36.6707 24.2946 34.7763H17.3865C17.3865 36.6707 18.9408 38.2207 20.8406 38.2207ZM31.2027 27.8874V19.2763C31.2027 13.9891 28.3876 9.56295 23.4311 8.39183V7.22072C23.4311 5.79128 22.274 4.63739 20.8406 4.63739C19.4071 4.63739 18.25 5.79128 18.25 7.22072V8.39183C13.3108 9.56295 10.4785 13.9718 10.4785 19.2763V27.8874L7.02441 31.3318V33.0541H34.6567V31.3318L31.2027 27.8874ZM27.7486 29.6096H13.9325V19.2763C13.9325 15.0052 16.5403 11.5263 20.8406 11.5263C25.1408 11.5263 27.7486 15.0052 27.7486 19.2763V29.6096Z" fill="white"/>
<ellipse cx="31.5376" cy="11.666" rx="4.67967" ry="4.66667" fill="white"/>
<ellipse cx="31.5365" cy="11.666" rx="3.34262" ry="3.33333" fill="#B93D2C"/>
</svg>
