<svg width="42" height="47" viewBox="0 0 42 47" fill="none" xmlns="http://www.w3.org/2000/svg">
<path d="M11.6667 16.3352V21.0019H4.66667V42.0019H37.3333V21.0019H30.3333V16.3352H37.3333C38.571 16.3352 39.758 16.8269 40.6332 17.702C41.5083 18.5772 42 19.7642 42 21.0019V42.0019C42 43.2395 41.5083 44.4265 40.6332 45.3017C39.758 46.1769 38.571 46.6685 37.3333 46.6685H4.66667C3.42899 46.6685 2.242 46.1769 1.36683 45.3017C0.491665 44.4265 0 43.2395 0 42.0019V21.0019C0 19.7642 0.491665 18.5772 1.36683 17.702C2.242 16.8269 3.42899 16.3352 4.66667 16.3352H11.6667ZM23.0627 1.09621L30.9003 8.93154C31.3382 9.36937 31.5841 9.96319 31.5841 10.5824C31.5841 11.2016 31.3382 11.7954 30.9003 12.2332C30.4625 12.671 29.8687 12.917 29.2495 12.917C28.6303 12.917 28.0365 12.671 27.5987 12.2332L23.3333 7.96554V30.3352C23.3333 30.954 23.0875 31.5475 22.6499 31.9851C22.2123 32.4227 21.6188 32.6685 21 32.6685C20.3812 32.6685 19.7877 32.4227 19.3501 31.9851C18.9125 31.5475 18.6667 30.954 18.6667 30.3352V7.96554L14.4013 12.2332C14.1845 12.45 13.9272 12.622 13.6439 12.7393C13.3607 12.8566 13.0571 12.917 12.7505 12.917C12.4439 12.917 12.1403 12.8566 11.8571 12.7393C11.5738 12.622 11.3165 12.45 11.0997 12.2332C10.8829 12.0164 10.7109 11.759 10.5936 11.4758C10.4763 11.1925 10.4159 10.889 10.4159 10.5824C10.4159 10.2758 10.4763 9.9722 10.5936 9.68895C10.7109 9.4057 10.8829 9.14833 11.0997 8.93154L18.9397 1.09621C19.4866 0.549772 20.2281 0.242828 21.0012 0.242828C21.7743 0.242828 22.5158 0.549772 23.0627 1.09621Z" fill="#5824D6"/>
</svg>
