<svg width="33" height="33" viewBox="0 0 33 33" fill="none" xmlns="http://www.w3.org/2000/svg">
<path d="M21.6675 18.166C21.6675 20.9275 19.429 23.166 16.6675 23.166C13.906 23.166 11.6675 20.9275 11.6675 18.166C11.6675 15.4045 13.906 13.166 16.6675 13.166C19.429 13.166 21.6675 15.4045 21.6675 18.166Z" fill="#D7C7FF"/>
<path d="M12.1675 11.166C12.1675 13.3752 10.3767 15.166 8.16748 15.166C5.95825 15.166 4.16748 13.3752 4.16748 11.166C4.16748 8.95676 5.95825 7.16599 8.16748 7.16599C10.3767 7.16599 12.1675 8.95676 12.1675 11.166Z" fill="#D7C7FF"/>
<path d="M29.1675 11.166C29.1675 13.3752 27.3767 15.166 25.1675 15.166C22.9583 15.166 21.1675 13.3752 21.1675 11.166C21.1675 8.95676 22.9583 7.16599 25.1675 7.16599C27.3767 7.16599 29.1675 8.95676 29.1675 11.166Z" fill="#D7C7FF"/>
<path fill-rule="evenodd" clip-rule="evenodd" d="M16.6685 12.166C16.6685 12.166 19.1537 12.166 20.9111 13.9233C20.9111 13.9233 22.6685 15.6807 22.6685 18.166C22.6685 18.166 22.6685 20.6513 20.9111 22.4086C20.9111 22.4086 19.1537 24.166 16.6685 24.166C16.6685 24.166 14.1832 24.166 12.4258 22.4086C12.4258 22.4086 10.6685 20.6513 10.6685 18.166C10.6685 18.166 10.6685 15.6807 12.4258 13.9233C12.4258 13.9233 14.1832 12.166 16.6685 12.166ZM16.6685 14.166C16.6685 14.166 15.0116 14.166 13.84 15.3376C13.84 15.3376 12.6685 16.5091 12.6685 18.166C12.6685 18.166 12.6685 19.8228 13.84 20.9944C13.84 20.9944 15.0116 22.166 16.6685 22.166C16.6685 22.166 18.3253 22.166 19.4969 20.9944C19.4969 20.9944 20.6685 19.8228 20.6685 18.166C20.6685 18.166 20.6685 16.5091 19.4969 15.3376C19.4969 15.3376 18.3253 14.166 16.6685 14.166Z" fill="#1C1C1C"/>
<path d="M30.3654 18.7642L30.3657 18.7647C30.5245 18.9771 30.7611 19.1178 31.0236 19.1557C31.071 19.1626 31.1188 19.166 31.1667 19.166L31.1685 19.166C31.3837 19.1656 31.593 19.0958 31.7654 18.967C32.018 18.7782 32.1667 18.4813 32.1667 18.166L32.1666 18.1545C32.1642 17.9427 32.0946 17.737 31.9677 17.5673L31.9669 17.5662C30.7649 15.9585 28.9694 15.0607 28.9694 15.0607C27.1732 14.1626 25.165 14.166 25.165 14.166L25.1667 14.166C25.719 14.166 26.1667 14.6137 26.1667 15.166C26.1667 15.7174 25.7203 16.1648 25.1689 16.166L30.3654 18.7642Z" fill="#1C1C1C"/>
<path d="M5.25927 16.8496C6.63155 16.1634 8.16581 16.166 8.16581 16.166L8.16721 16.166H8.16748C8.18294 16.166 8.1984 16.1656 8.21385 16.1649C8.46218 16.1534 8.69732 16.0498 8.8734 15.8743C9.06125 15.6871 9.16704 15.4329 9.16748 15.1677L9.16748 15.1663V15.166C9.16748 15.1055 9.16199 15.0452 9.15109 14.9857C9.06416 14.5115 8.65126 14.1668 8.16915 14.166L8.16748 14.166C6.16025 14.163 4.36484 15.0607 4.36484 15.0607C2.56932 15.9585 1.36733 17.5662 1.36733 17.5662L1.36661 17.5672C1.23729 17.7402 1.16748 17.9502 1.16748 18.166L1.16754 18.1765C1.168 18.2209 1.17142 18.2651 1.17777 18.3091C1.21572 18.5716 1.35638 18.8082 1.56882 18.967C1.74167 19.0962 1.95168 19.166 2.16748 19.166C2.18085 19.166 2.19422 19.1657 2.20758 19.1652C2.5086 19.1531 2.78813 19.006 2.96848 18.7647C3.88698 17.5357 5.25927 16.8496 5.25927 16.8496Z" fill="#1C1C1C"/>
<path d="M20.382 25.2333C22.0859 26.2975 22.9678 28.1024 22.9678 28.1024L22.9684 28.1035L22.9687 28.1042C23.1364 28.4476 23.4851 28.6654 23.8673 28.6654L23.8947 28.665C24.0374 28.6611 24.1777 28.6266 24.3061 28.564C24.6495 28.3963 24.8673 28.0475 24.8673 27.6654L24.8669 27.638C24.863 27.4952 24.8286 27.3549 24.7659 27.2266L24.7655 27.2258C23.6321 24.9051 21.4415 23.537 21.4415 23.537C19.2505 22.1686 16.6673 22.1686 16.6673 22.1686C14.0841 22.1686 11.8931 23.537 11.8931 23.537C9.70251 24.9051 8.56908 27.2258 8.56908 27.2258L8.56873 27.2265C8.50197 27.3632 8.46729 27.5133 8.46729 27.6654L8.46737 27.6784C8.46875 27.7847 8.48707 27.89 8.52162 27.9905C8.60785 28.2413 8.79019 28.4476 9.02851 28.564C9.16515 28.6307 9.31522 28.6654 9.46729 28.6654L9.49025 28.6651C9.86404 28.6565 10.2018 28.4401 10.3659 28.1042C11.2478 26.298 12.9526 25.2333 12.9526 25.2333C14.6573 24.1686 16.6673 24.1686 16.6673 24.1686C18.6772 24.1686 20.382 25.2333 20.382 25.2333Z" fill="#1C1C1C"/>
<path d="M10.351 9.11062C10.9479 9.74597 11.1114 10.6023 11.1114 10.6023C11.1611 10.8628 11.3123 11.0929 11.5316 11.2419C11.6974 11.3545 11.8932 11.4148 12.0936 11.4148L12.1001 11.4147C12.1609 11.4144 12.2214 11.4084 12.2811 11.397C12.7526 11.307 13.0936 10.8948 13.0936 10.4148L13.0936 10.4091C13.0933 10.3481 13.0873 10.2872 13.0759 10.2273C12.8035 8.8001 11.8086 7.74119 11.8086 7.74119C10.8138 6.68227 9.40634 6.32143 9.40634 6.32143C7.99893 5.96058 6.61731 6.4102 6.61731 6.4102C5.23569 6.85981 4.31019 7.97984 4.31019 7.97984C3.38469 9.09987 3.20356 10.5415 3.20356 10.5415C3.02244 11.9831 3.64211 13.2972 3.64211 13.2972C4.26178 14.6114 5.48924 15.3888 5.48924 15.3888C6.71627 16.166 8.16862 16.1648 8.16862 16.1648L8.16963 16.1648C8.43485 16.1645 8.6891 16.0589 8.87644 15.8712C9.06354 15.6837 9.16862 15.4296 9.16862 15.1648L9.16862 15.1638C9.16806 14.6119 8.72051 14.1648 8.16862 14.1648L8.1676 14.1648C7.29584 14.1657 6.55937 13.6992 6.55937 13.6992C5.82289 13.2328 5.45109 12.4443 5.45109 12.4443C5.07929 11.6558 5.18796 10.7908 5.18796 10.7908C5.29664 9.92583 5.85194 9.25381 5.85194 9.25381C6.40724 8.58179 7.23621 8.31203 7.23621 8.31203C8.06518 8.04226 8.90963 8.25877 8.90963 8.25877C9.75408 8.47527 10.351 9.11062 10.351 9.11062Z" fill="#1C1C1C"/>
<path d="M26.7774 13.6992C26.0409 14.1657 25.1692 14.1648 25.1692 14.1648L25.1682 14.1648C25.1525 14.1648 25.1368 14.1651 25.1211 14.1659L24.1693 15.2118C24.181 15.4601 24.2847 15.6952 24.4603 15.8712C24.6477 16.0589 24.9019 16.1645 25.1671 16.1648L25.1682 16.1648C26.6205 16.166 27.8475 15.3888 27.8475 15.3888C29.075 14.6114 29.6947 13.2972 29.6947 13.2972C30.3143 11.9831 30.1332 10.5415 30.1332 10.5415C29.9521 9.09987 29.0266 7.97984 29.0266 7.97984C28.1011 6.85981 26.7195 6.4102 26.7195 6.4102C25.3379 5.96058 23.9304 6.32143 23.9304 6.32143C22.523 6.68227 21.5282 7.74119 21.5282 7.74119C20.5333 8.8001 20.2609 10.2273 20.2609 10.2273C20.2491 10.2891 20.2432 10.3519 20.2432 10.4148C20.2432 10.4448 20.2445 10.4749 20.2472 10.5048C20.2874 10.9493 20.6173 11.3134 21.0557 11.397C21.1175 11.4088 21.1802 11.4148 21.2432 11.4148C21.2732 11.4148 21.3033 11.4134 21.3332 11.4107C21.7777 11.3705 22.1417 11.0407 22.2254 10.6023C22.3889 9.74597 22.9858 9.11062 22.9858 9.11062C23.5827 8.47527 24.4272 8.25877 24.4272 8.25877C25.2716 8.04226 26.1006 8.31203 26.1006 8.31203C26.9295 8.58179 27.4848 9.25381 27.4848 9.25381C28.0401 9.92583 28.1488 10.7908 28.1488 10.7908C28.2575 11.6558 27.8857 12.4443 27.8857 12.4443C27.5139 13.2328 26.7774 13.6992 26.7774 13.6992Z" fill="#1C1C1C"/>
</svg>
